# xmcd
#
# Track frame offsets:
#	150
#	14790
#	24290
#	37272
#	50510
#	60025
#	73785
#	87045
#	101382
#	114952
#	125290
#	135875
#
# Disc length: 1982 seconds
#
# Revision: 0
# Processed by: cddbd v1.5.1PL2 Copyright (c) Steve Scherf et al.
# Submitted via: EasyCDDAExtractor 8.1.2.3
#
DISCID=9007bc0c
DTITLE=Banda El Cerrito - Mira
DYEAR=1900
DGENRE=Banda
TTITLE0=Mira
TTITLE1=El Juramento
TTITLE2=Me Duele La Cara
TTITLE3=Mejor Vamonos
TTITLE4=A Una Chica
TTITLE5=La Clave Nueva
TTITLE6=Sin Mami
TTITLE7=El Parasol
TTITLE8=Con Una Cancion
TTITLE9=Taxi
TTITLE10=Las Chicas
TTITLE11=A Veces Si
EXTD=
EXTT0=
EXTT1=
EXTT2=
EXTT3=
EXTT4=
EXTT5=
EXTT6=
EXTT7=
EXTT8=
EXTT9=
EXTT10=
EXTT11=
PLAYORDER=
